<?xml version="1.0" encoding="utf-8"?>
<!-- Generator: Adobe Illustrator 17.0.0, SVG Export Plug-In . SVG Version: 6.00 Build 0)  -->
<!DOCTYPE svg PUBLIC "-//W3C//DTD SVG 1.1//EN" "http://www.w3.org/Graphics/SVG/1.1/DTD/svg11.dtd">
<svg version="1.1" id="Layer_3_copy_14" xmlns="http://www.w3.org/2000/svg" xmlns:xlink="http://www.w3.org/1999/xlink" x="0px"
	 y="0px" width="153.4px" height="188.9px" viewBox="0 0 153.4 188.9" enable-background="new 0 0 153.4 188.9"
	 xml:space="preserve">
<g>
	<g>
		<rect y="0" display="none" fill="#F98F5C" width="153.4" height="188.9"/>
		<path d="M153.4,169.9c0-0.4,0-1,0-1.8c0-1.5,0-3.6,0-5.9c0-4.6,0-10,0-13.4c0-0.6-0.1-1.1-0.3-1.7c0.2-0.7,0.3-1.4,0.3-2.1
			c0-2.3-1-4.3-2.2-5.6c-1.2-1.4-2.4-2.3-3.8-3.1c-2.8-1.6-6.2-2.8-10.2-3.9c-8.1-2.2-19-3.8-31.7-4.7l0,0c-0.1,0-0.2,0-0.4,0
			c-1.6,0-3.1,0-4.5,0c-0.3-1.2-0.5-2.2-0.5-3.1c-0.5-9.6-1.9-19.5,0-29c2.8-13.2,16.8-20.3,15.5-35.3c-1.2-14.2-2.7-28.1-3.5-42.4
			c-0.2-3.3,0.7-8.2-0.3-11.2c-1.7-5.1-8.6-6.2-13.2-6.3c-16.9-0.6-34,0-51,0C35.9,7.2,26,17.6,20.7,30.7c0,0,0,0,0,0.1
			c0,0,0,0,0,0.1c-2,5.1-2.8,10-3.8,14.5C16,49.8,15,53.7,13.2,57c-0.5,0.9-1.9,2.7-3.6,4.7s-3.7,4.2-5.5,6.8c-1.8,2.5-3.4,5.4-4,9
			s0.5,8,3.4,11.2l0,0l0,0c4,4.6,9.7,6,14.9,5.9c5.2-0.2,10.3-1.7,14.8-4c5-2.5,9.3-5.7,12.2-9.9l0,0c1.4-2.1,2.5-4.6,3.9-7.5
			s3.1-6.1,4.6-8.4c0.8-1.2,1.6-2.1,2.2-2.6c0.1-0.1,0.2-0.2,0.3-0.3c0.2,0.2,0.5,0.6,0.9,1.2c1.6,2.3,2.6,7.3,2.5,12.9
			c0,5.6-0.8,11.6-1.3,16.3c-0.7,6.8-3.1,18.3-3.3,29.5c0,2,0,4,0.2,5.9c-0.3,0-0.6,0-0.9,0.1l0,0h-0.1l0,0
			c-12.5,1-23.2,2.6-31.2,4.7c-4,1.1-7.3,2.3-10,3.9c-1.4,0.8-2.7,1.8-3.8,3.1s-2.1,3.3-2.1,5.6c0,0.8,0.1,1.5,0.3,2.1
			c-0.2,0.5-0.3,1.1-0.3,1.7v21.8c0,3.1,1.7,5.4,3.3,6.8c1.6,1.5,3.4,2.4,5.5,3.4c4.1,1.8,9.3,3.2,15.7,4.4
			c12.7,2.4,29.8,3.8,48.7,3.8s36-1.4,48.7-3.8c6.4-1.2,11.6-2.6,15.7-4.4c2.1-0.9,3.9-1.9,5.5-3.4c1.5-1.3,3.1-3.5,3.2-6.4
			c0-0.1,0-0.1,0-0.2c0-0.1,0-0.1,0-0.2c0,0,0,0,0-0.1v-0.1C153.4,170.3,153.4,170.1,153.4,169.9z M56,61.4L56,61.4L56,61.4L56,61.4
			L56,61.4L56,61.4z"/>
		<path fill="#D72512" d="M147.6,148.8c-8.1,7.8-42.9,10.8-67.3,10.8S21,156.7,13,148.8v21.8c0,6.9,30.1,12.5,67.3,12.5
			s67.3-5.6,67.3-12.5l0,0C147.6,170.5,147.6,155.7,147.6,148.8z"/>
		<g>
			<g>
				<g>
					<path fill="#FFFFFF" d="M56.367,133.4C31.367,135.2,16,139.7,16,145c0,6.9,19.867-0.55,44.033,6.45"/>
				</g>
			</g>
			<g>
				<path fill="#D72512" d="M105,133.4c-1.3,0-2.5,0-3.7,0c0.9,5.2,0.9,10.5-2.7,14.9c-6.5,8-23.4,6.7-30.1,3
					c-6.3-3.5-10-9.8-11.6-16.7c-0.1-0.4-0.2-0.8-0.3-1.2c-0.6,0-1.2,0.1-1.9,0.1C30.3,135.3,13,139.8,13,145
					c0,6.9,30.1,12.5,67.3,12.5s67.3-5.6,67.3-12.5C147.6,139.7,130,135.2,105,133.4z M15.9,145.3c0,0,5.2-7.1,40.2-9.5l0.5,2.4
					C56.6,138.2,39.6,137.8,15.9,145.3z"/>
			</g>
		</g>
		<path fill="#FFFFFF" d="M107.7,35.9c0-15.5-1-29.3-2.8-29.6C93.8,5.2,82.4,5.9,71.2,5.9c-5.1,0-10.2,0-15.3,0
			c-1.3,0-5.3-0.7-6.5,0C39.1,12.3,30.5,21.6,26,33c-3.5,8.7-3.2,18.4-7.7,26.8c-3.8,6.9-17.8,16.6-10.4,25c5.1,5.8,15,4.4,22.8,0.5
			c4.3-2.1,8-5.1,10-7.9c2.4-3.5,7.2-16.8,12.9-20.7c-4-5.4-10-11.5-10-11.5c8.8,3.2,17.9,10.1,20.7,19.3c2.7,8.9,0.8,19.1-0.1,28.2
			c-1.5,14.7-9.5,44.7,6.9,53.9c5.4,3,19.2,3.5,23.5-1.7c4.7-5.7,0.2-13.5-0.3-20c-1-12.4-0.4-25.6,3.5-37.5
			c1.7-5.3,5.6-9.2,8.1-14.1c2.7-5.2,3.3-11.3,2.8-17.1C107.9,49.5,107.7,42.7,107.7,35.9z"/>
	</g>
</g>
</svg>
